<svg xmlns="http://www.w3.org/2000/svg" viewBox="0 0 2400 2400" width="2400" height="2400"><title>Cream wash</title><defs><filter id="f0" x="-15%" y="-15%" width="130%" height="130%" color-interpolation-filters="sRGB"><feTurbulence type="fractalNoise" baseFrequency="0.00167" numOctaves="5" seed="110" result="n"/><feDisplacementMap in="SourceGraphic" in2="n" scale="142" xChannelSelector="R" yChannelSelector="G" result="d"/><feGaussianBlur in="d" stdDeviation="2.9" result="soft"/><feMorphology in="soft" operator="erode" radius="10" result="er"/><feComposite in="soft" in2="er" operator="out" result="edge"/><feGaussianBlur in="edge" stdDeviation="6.0" result="edgeb"/><feTurbulence type="fractalNoise" baseFrequency="0.00583" numOctaves="4" seed="117" result="t"/><feColorMatrix in="t" type="matrix" values="0 0 0 0 0  0 0 0 0 0  0 0 0 0 0  0 0 0 1.4 -0.35" result="tm"/><feComposite in="soft" in2="tm" operator="in" result="tex0"/><feComponentTransfer in="tex0" result="tex"><feFuncA type="linear" slope=".35"/></feComponentTransfer><feGaussianBlur in="er" stdDeviation="48.0" result="core"/><feComposite in="soft" in2="core" operator="out" result="rim"/><feComponentTransfer in="soft" result="base"><feFuncA type="linear" slope=".5"/></feComponentTransfer><feComponentTransfer in="rim" result="rim2"><feFuncA type="linear" slope=".35"/></feComponentTransfer><feComponentTransfer in="edgeb" result="edge2"><feFuncA type="linear" slope=".55"/></feComponentTransfer><feMerge><feMergeNode in="base"/><feMergeNode in="tex"/><feMergeNode in="rim2"/><feMergeNode in="edge2"/></feMerge></filter><filter id="f1" x="-15%" y="-15%" width="130%" height="130%" color-interpolation-filters="sRGB"><feTurbulence type="fractalNoise" baseFrequency="0.00167" numOctaves="5" seed="111" result="n"/><feDisplacementMap in="SourceGraphic" in2="n" scale="151" xChannelSelector="R" yChannelSelector="G" result="d"/><feGaussianBlur in="d" stdDeviation="2.9" result="soft"/><feMorphology in="soft" operator="erode" radius="10" result="er"/><feComposite in="soft" in2="er" operator="out" result="edge"/><feGaussianBlur in="edge" stdDeviation="6.0" result="edgeb"/><feTurbulence type="fractalNoise" baseFrequency="0.00583" numOctaves="4" seed="118" result="t"/><feColorMatrix in="t" type="matrix" values="0 0 0 0 0  0 0 0 0 0  0 0 0 0 0  0 0 0 1.4 -0.35" result="tm"/><feComposite in="soft" in2="tm" operator="in" result="tex0"/><feComponentTransfer in="tex0" result="tex"><feFuncA type="linear" slope=".35"/></feComponentTransfer><feGaussianBlur in="er" stdDeviation="48.0" result="core"/><feComposite in="soft" in2="core" operator="out" result="rim"/><feComponentTransfer in="soft" result="base"><feFuncA type="linear" slope=".5"/></feComponentTransfer><feComponentTransfer in="rim" result="rim2"><feFuncA type="linear" slope=".35"/></feComponentTransfer><feComponentTransfer in="edgeb" result="edge2"><feFuncA type="linear" slope=".55"/></feComponentTransfer><feMerge><feMergeNode in="base"/><feMergeNode in="tex"/><feMergeNode in="rim2"/><feMergeNode in="edge2"/></feMerge></filter><filter id="f2" x="-15%" y="-15%" width="130%" height="130%" color-interpolation-filters="sRGB"><feTurbulence type="fractalNoise" baseFrequency="0.00167" numOctaves="5" seed="112" result="n"/><feDisplacementMap in="SourceGraphic" in2="n" scale="131" xChannelSelector="R" yChannelSelector="G" result="d"/><feGaussianBlur in="d" stdDeviation="2.9" result="soft"/><feMorphology in="soft" operator="erode" radius="10" result="er"/><feComposite in="soft" in2="er" operator="out" result="edge"/><feGaussianBlur in="edge" stdDeviation="6.0" result="edgeb"/><feTurbulence type="fractalNoise" baseFrequency="0.00583" numOctaves="4" seed="119" result="t"/><feColorMatrix in="t" type="matrix" values="0 0 0 0 0  0 0 0 0 0  0 0 0 0 0  0 0 0 1.4 -0.35" result="tm"/><feComposite in="soft" in2="tm" operator="in" result="tex0"/><feComponentTransfer in="tex0" result="tex"><feFuncA type="linear" slope=".35"/></feComponentTransfer><feGaussianBlur in="er" stdDeviation="48.0" result="core"/><feComposite in="soft" in2="core" operator="out" result="rim"/><feComponentTransfer in="soft" result="base"><feFuncA type="linear" slope=".5"/></feComponentTransfer><feComponentTransfer in="rim" result="rim2"><feFuncA type="linear" slope=".35"/></feComponentTransfer><feComponentTransfer in="edgeb" result="edge2"><feFuncA type="linear" slope=".55"/></feComponentTransfer><feMerge><feMergeNode in="base"/><feMergeNode in="tex"/><feMergeNode in="rim2"/><feMergeNode in="edge2"/></feMerge></filter><filter id="f3" x="-15%" y="-15%" width="130%" height="130%" color-interpolation-filters="sRGB"><feTurbulence type="fractalNoise" baseFrequency="0.00167" numOctaves="5" seed="113" result="n"/><feDisplacementMap in="SourceGraphic" in2="n" scale="127" xChannelSelector="R" yChannelSelector="G" result="d"/><feGaussianBlur in="d" stdDeviation="2.9" result="soft"/><feMorphology in="soft" operator="erode" radius="10" result="er"/><feComposite in="soft" in2="er" operator="out" result="edge"/><feGaussianBlur in="edge" stdDeviation="6.0" result="edgeb"/><feTurbulence type="fractalNoise" baseFrequency="0.00583" numOctaves="4" seed="120" result="t"/><feColorMatrix in="t" type="matrix" values="0 0 0 0 0  0 0 0 0 0  0 0 0 0 0  0 0 0 1.4 -0.35" result="tm"/><feComposite in="soft" in2="tm" operator="in" result="tex0"/><feComponentTransfer in="tex0" result="tex"><feFuncA type="linear" slope=".35"/></feComponentTransfer><feGaussianBlur in="er" stdDeviation="48.0" result="core"/><feComposite in="soft" in2="core" operator="out" result="rim"/><feComponentTransfer in="soft" result="base"><feFuncA type="linear" slope=".5"/></feComponentTransfer><feComponentTransfer in="rim" result="rim2"><feFuncA type="linear" slope=".35"/></feComponentTransfer><feComponentTransfer in="edgeb" result="edge2"><feFuncA type="linear" slope=".55"/></feComponentTransfer><feMerge><feMergeNode in="base"/><feMergeNode in="tex"/><feMergeNode in="rim2"/><feMergeNode in="edge2"/></feMerge></filter><filter id="f4" x="-15%" y="-15%" width="130%" height="130%" color-interpolation-filters="sRGB"><feTurbulence type="fractalNoise" baseFrequency="0.00167" numOctaves="5" seed="114" result="n"/><feDisplacementMap in="SourceGraphic" in2="n" scale="119" xChannelSelector="R" yChannelSelector="G" result="d"/><feGaussianBlur in="d" stdDeviation="2.9" result="soft"/><feMorphology in="soft" operator="erode" radius="10" result="er"/><feComposite in="soft" in2="er" operator="out" result="edge"/><feGaussianBlur in="edge" stdDeviation="6.0" result="edgeb"/><feTurbulence type="fractalNoise" baseFrequency="0.00583" numOctaves="4" seed="121" result="t"/><feColorMatrix in="t" type="matrix" values="0 0 0 0 0  0 0 0 0 0  0 0 0 0 0  0 0 0 1.4 -0.35" result="tm"/><feComposite in="soft" in2="tm" operator="in" result="tex0"/><feComponentTransfer in="tex0" result="tex"><feFuncA type="linear" slope=".35"/></feComponentTransfer><feGaussianBlur in="er" stdDeviation="48.0" result="core"/><feComposite in="soft" in2="core" operator="out" result="rim"/><feComponentTransfer in="soft" result="base"><feFuncA type="linear" slope=".5"/></feComponentTransfer><feComponentTransfer in="rim" result="rim2"><feFuncA type="linear" slope=".35"/></feComponentTransfer><feComponentTransfer in="edgeb" result="edge2"><feFuncA type="linear" slope=".55"/></feComponentTransfer><feMerge><feMergeNode in="base"/><feMergeNode in="tex"/><feMergeNode in="rim2"/><feMergeNode in="edge2"/></feMerge></filter><filter id="f5" x="-15%" y="-15%" width="130%" height="130%" color-interpolation-filters="sRGB"><feTurbulence type="fractalNoise" baseFrequency="0.00167" numOctaves="5" seed="115" result="n"/><feDisplacementMap in="SourceGraphic" in2="n" scale="166" xChannelSelector="R" yChannelSelector="G" result="d"/><feGaussianBlur in="d" stdDeviation="2.9" result="soft"/><feMorphology in="soft" operator="erode" radius="10" result="er"/><feComposite in="soft" in2="er" operator="out" result="edge"/><feGaussianBlur in="edge" stdDeviation="6.0" result="edgeb"/><feTurbulence type="fractalNoise" baseFrequency="0.00583" numOctaves="4" seed="122" result="t"/><feColorMatrix in="t" type="matrix" values="0 0 0 0 0  0 0 0 0 0  0 0 0 0 0  0 0 0 1.4 -0.35" result="tm"/><feComposite in="soft" in2="tm" operator="in" result="tex0"/><feComponentTransfer in="tex0" result="tex"><feFuncA type="linear" slope=".35"/></feComponentTransfer><feGaussianBlur in="er" stdDeviation="48.0" result="core"/><feComposite in="soft" in2="core" operator="out" result="rim"/><feComponentTransfer in="soft" result="base"><feFuncA type="linear" slope=".5"/></feComponentTransfer><feComponentTransfer in="rim" result="rim2"><feFuncA type="linear" slope=".35"/></feComponentTransfer><feComponentTransfer in="edgeb" result="edge2"><feFuncA type="linear" slope=".55"/></feComponentTransfer><feMerge><feMergeNode in="base"/><feMergeNode in="tex"/><feMergeNode in="rim2"/><feMergeNode in="edge2"/></feMerge></filter></defs><path d="M1833 1047Q1856 1257 1814 1456Q1772 1655 1581 1713Q1389 1772 1222 1863Q1054 1953 858 1890Q661 1826 514 1657Q367 1489 507 1299Q648 1109 699 950Q751 792 915 764Q1079 736 1289 620Q1498 504 1654 670Q1810 836 1833 1047Z" fill="#FCE7C8" fill-opacity="0.56" filter="url(#f0)"/><path d="M2173 1477Q2156 1646 2094 1765Q2033 1884 1979 2052Q1925 2220 1761 2159Q1598 2098 1465 2063Q1332 2028 1246 1911Q1160 1794 1198 1657Q1236 1521 1250 1354Q1265 1187 1422 1121Q1578 1054 1776 1010Q1974 966 2082 1136Q2191 1307 2173 1477Z" fill="#F9DDB5" fill-opacity="0.74" filter="url(#f1)"/><path d="M1852 1172Q1932 1356 1873 1554Q1815 1751 1648 1862Q1482 1973 1296 1978Q1110 1983 991 1859Q872 1735 809 1612Q747 1489 737 1353Q727 1217 827 1129Q926 1040 1016 874Q1107 709 1263 791Q1420 874 1596 931Q1773 988 1852 1172Z" fill="#FFF0D9" fill-opacity="0.67" filter="url(#f2)"/><path d="M2141 1384Q2178 1533 2087 1648Q1997 1763 1934 1901Q1871 2040 1726 1987Q1582 1935 1506 1856Q1429 1776 1311 1720Q1193 1665 1174 1528Q1156 1391 1276 1322Q1396 1252 1495 1232Q1593 1212 1697 1196Q1801 1180 1953 1207Q2105 1235 2141 1384Z" fill="#FCE7C8" fill-opacity="0.78" filter="url(#f3)"/><path d="M1265 853Q1377 957 1261 1057Q1146 1158 1089 1274Q1032 1391 901 1395Q770 1399 679 1319Q587 1240 458 1172Q329 1105 409 980Q489 855 497 717Q505 578 644 592Q783 605 899 581Q1016 557 1085 654Q1154 750 1265 853Z" fill="#F9DDB5" fill-opacity="0.63" filter="url(#f4)"/><path d="M2059 1368Q2081 1491 2071 1623Q2061 1754 1988 1909Q1914 2064 1743 2057Q1572 2049 1483 1920Q1393 1790 1200 1735Q1007 1681 1123 1525Q1239 1370 1300 1263Q1361 1156 1464 1024Q1566 893 1706 980Q1846 1067 1941 1156Q2036 1245 2059 1368Z" fill="#FFF0D9" fill-opacity="0.57" filter="url(#f5)"/></svg>
