<svg xmlns="http://www.w3.org/2000/svg" viewBox="0 0 1920 2560" width="1920" height="2560" role="img"><title>Immersive Artistic Hero</title><desc>Sunrise over layered mountains, mist and a still lake.</desc><defs>
<linearGradient id="sky" x1="0" y1="0" x2="0" y2="1"><stop offset="0" stop-color="#6d6fa6"/><stop offset="0.22" stop-color="#9c8cbd"/><stop offset="0.4" stop-color="#d9a3b8"/><stop offset="0.52" stop-color="#f5b48f"/><stop offset="0.6" stop-color="#fcd7a6"/></linearGradient>
<radialGradient id="glow" cx="0.5" cy="0.5" r="0.55"><stop offset="0" stop-color="#fff5d8" stop-opacity="0.95"/><stop offset="0.12" stop-color="#ffd8a0" stop-opacity="0.7"/><stop offset="0.45" stop-color="#f7a987" stop-opacity="0.18"/><stop offset="1" stop-color="#f7a987" stop-opacity="0"/></radialGradient>
<linearGradient id="lake" x1="0" y1="0" x2="0" y2="1"><stop offset="0" stop-color="#e9b9ae"/><stop offset="0.5" stop-color="#a88fb2"/><stop offset="1" stop-color="#6b6690"/></linearGradient>
<linearGradient id="shade" x1="0" y1="0" x2="0" y2="1"><stop offset="0" stop-color="#1b1726" stop-opacity="0"/><stop offset="1" stop-color="#1b1726" stop-opacity="0.35"/></linearGradient>
<filter id="cloud" x="-30%" y="-80%" width="160%" height="260%"><feTurbulence type="fractalNoise" baseFrequency="0.008 0.03" numOctaves="4" seed="4" result="t"/><feDisplacementMap in="SourceGraphic" in2="t" scale="120" xChannelSelector="R" yChannelSelector="G"/><feGaussianBlur stdDeviation="10"/></filter>
<filter id="mist" x="-10%" y="-200%" width="120%" height="500%"><feGaussianBlur stdDeviation="40"/></filter>
<filter id="soft" x="-20%" y="-20%" width="140%" height="140%"><feTurbulence type="fractalNoise" baseFrequency="0.02" numOctaves="4" seed="9" result="t"/><feDisplacementMap in="SourceGraphic" in2="t" scale="22" xChannelSelector="R" yChannelSelector="G" result="d"/><feGaussianBlur in="d" stdDeviation="1.2"/></filter>
<filter id="grain" x="0" y="0" width="100%" height="100%" color-interpolation-filters="sRGB"><feTurbulence type="fractalNoise" baseFrequency="0.8" numOctaves="3" seed="7" stitchTiles="stitch" result="n"/><feColorMatrix in="n" type="matrix" values="0 0 0 0 0.35  0 0 0 0 0.3  0 0 0 0 0.25  0 0 0 0.6 -0.3"/></filter>
</defs>
<rect width="1920" height="2560" fill="url(#sky)"/>
<g filter="url(#cloud)"><ellipse cx="1189.2" cy="677.5" rx="313.4" ry="63.4" fill="#c7a9d4" opacity="0.6"/><ellipse cx="1188.4" cy="235.5" rx="277.1" ry="47.1" fill="#c7a9d4" opacity="0.7"/><ellipse cx="1344.8" cy="583.7" rx="201.8" ry="33.9" fill="#fbd8b8" opacity="0.5"/><ellipse cx="1134.9" cy="559" rx="193.1" ry="52.3" fill="#d9a6c3" opacity="0.6"/><ellipse cx="1607.4" cy="582.1" rx="359.9" ry="40" fill="#b9a4cf" opacity="0.6"/><ellipse cx="1470.7" cy="411.3" rx="414.2" ry="39.1" fill="#f6c3a4" opacity="0.4"/><ellipse cx="1073.3" cy="915" rx="309.9" ry="63.2" fill="#f4b18e" opacity="0.4"/><ellipse cx="715.6" cy="1023.7" rx="166.6" ry="29.4" fill="#fbd3a8" opacity="0.7"/><ellipse cx="473.3" cy="662.8" rx="290.5" ry="58.3" fill="#c7a9d4" opacity="0.4"/><ellipse cx="842.4" cy="813.2" rx="325" ry="69.3" fill="#f7c29d" opacity="0.5"/><ellipse cx="2.4" cy="631" rx="350.7" ry="44.5" fill="#d9a6c3" opacity="0.7"/><ellipse cx="637.4" cy="461.2" rx="379" ry="33" fill="#c7a9d4" opacity="0.4"/><ellipse cx="166" cy="799" rx="256" ry="42.6" fill="#f4b18e" opacity="0.7"/><ellipse cx="771.1" cy="1027" rx="398.9" ry="51.8" fill="#f4b18e" opacity="0.5"/><ellipse cx="-81.8" cy="468.8" rx="389" ry="39.3" fill="#c7a9d4" opacity="0.5"/><ellipse cx="1479.6" cy="280.1" rx="301.6" ry="48.6" fill="#f6c3a4" opacity="0.4"/><ellipse cx="1774.9" cy="726.7" rx="410" ry="52.3" fill="#f4b18e" opacity="0.6"/><ellipse cx="100.2" cy="740.5" rx="329.5" ry="54.6" fill="#f4b18e" opacity="0.7"/><ellipse cx="191.5" cy="881.2" rx="328.2" ry="68.8" fill="#f7c29d" opacity="0.5"/><ellipse cx="1512.7" cy="1101.3" rx="330" ry="29.1" fill="#f4b18e" opacity="0.5"/><ellipse cx="1230.9" cy="833.5" rx="218.6" ry="57.6" fill="#f4b18e" opacity="0.5"/><ellipse cx="707.6" cy="247.8" rx="207.1" ry="61.9" fill="#c7a9d4" opacity="0.7"/><ellipse cx="818" cy="922.2" rx="381.1" ry="51" fill="#f7c29d" opacity="0.6"/><ellipse cx="951.7" cy="797.4" rx="287.7" ry="33.2" fill="#f7c29d" opacity="0.7"/><ellipse cx="2014.8" cy="218.8" rx="319.3" ry="57" fill="#f6c3a4" opacity="0.7"/><ellipse cx="7.3" cy="1094.3" rx="203.8" ry="52.2" fill="#fbd3a8" opacity="0.5"/><ellipse cx="7.2" cy="580.9" rx="175.8" ry="46.4" fill="#c7a9d4" opacity="0.5"/><ellipse cx="777.3" cy="580.9" rx="247.9" ry="51.9" fill="#fbd8b8" opacity="0.5"/><ellipse cx="844.6" cy="1152.3" rx="223.8" ry="56.1" fill="#f7c29d" opacity="0.5"/><ellipse cx="-94.1" cy="729.5" rx="194" ry="33.3" fill="#f4b18e" opacity="0.7"/><ellipse cx="309.9" cy="292.5" rx="324.3" ry="62.3" fill="#fbd8b8" opacity="0.6"/><ellipse cx="87.7" cy="985.5" rx="353.5" ry="35.5" fill="#f7c29d" opacity="0.4"/><ellipse cx="1773" cy="504.6" rx="326.1" ry="57.7" fill="#f6c3a4" opacity="0.6"/><ellipse cx="713.5" cy="928.1" rx="358.6" ry="36" fill="#fbd3a8" opacity="0.4"/><ellipse cx="-82.1" cy="295.5" rx="306.5" ry="68.5" fill="#c7a9d4" opacity="0.7"/><ellipse cx="18.8" cy="685.8" rx="297.3" ry="59.8" fill="#b9a4cf" opacity="0.5"/><ellipse cx="1755.1" cy="1160" rx="282.8" ry="66.8" fill="#f7c29d" opacity="0.7"/><ellipse cx="823.6" cy="551.9" rx="185.7" ry="34.3" fill="#d9a6c3" opacity="0.4"/></g>
<rect width="1920" height="2560" fill="url(#glow)"/>
<circle cx="998.4" cy="1393.6" r="67.2" fill="#fff6dc"/>
<linearGradient id="m0" x1="0" y1="0" x2="0" y2="1"><stop offset="0" stop-color="#e6b3b8"/><stop offset="0.35" stop-color="#f3cfc4"/></linearGradient><path d="M-40,2560L-40,1205L-25.1,1206.7L-9.6,1204.2L4.9,1206.7L20.1,1213.6L35.6,1212.9L51.8,1208.3L67.5,1207.1L82.8,1211.6L97.6,1209.8L112.6,1213.9L127.4,1213.9L142.6,1210.3L158,1212.7L173.5,1221L188.7,1218.5L204.6,1221.5L220.7,1225.6L237,1229.6L252.3,1240.2L268.5,1246.4L284.6,1246.1L300,1248.8L316.3,1251.5L332.9,1258.8L347.5,1265.4L362.7,1277.5L378.4,1283.4L394.2,1286.1L409.4,1292.1L424.1,1299.2L439.8,1303.9L454.8,1308.9L470.5,1306.6L486.5,1302.8L502.8,1302.8L518.9,1300.8L534.7,1302.7L550.7,1302.3L566.2,1299.6L581.8,1298L597.8,1304L613.9,1304.4L629.6,1303L645.7,1300L660.9,1298.4L676.8,1295.3L692,1290.1L707.8,1283.5L723.2,1285.5L739.1,1283.8L754.8,1283.4L770.1,1286.6L786.2,1286.9L801.5,1288.1L817.4,1282.6L833.5,1280.5L848.5,1280.6L864.3,1276.2L880.1,1273.6L896.5,1270.8L913.2,1275.7L929.3,1276L945.5,1279.1L962.3,1277.3L977.6,1277.3L993.1,1276.6L1008.3,1278.8L1023.8,1282.9L1038.9,1278.3L1054.7,1279.2L1069.7,1277.3L1085.1,1280.5L1099.1,1283.7L1113.4,1285.6L1127.9,1291.1L1142.4,1299.7L1157.8,1300.1L1173.1,1299L1187.9,1302.3L1202.4,1300.5L1217.6,1300.8L1233.4,1301.8L1249.3,1302.8L1265.9,1301.5L1280.8,1302L1296.2,1306.6L1311.5,1311.2L1326.6,1318.6L1341.9,1319.6L1357.7,1318.7L1373.7,1322.3L1390.2,1329L1405.2,1332.3L1420.6,1341.4L1435.5,1340.3L1451.2,1344.5L1466.5,1346.7L1482.1,1348.8L1497.5,1349.1L1513.2,1343.8L1528.4,1343.3L1543.3,1340.2L1558.4,1341.2L1573.8,1340.1L1590,1344.4L1606.3,1344L1622.3,1353.2L1638.4,1359.2L1653.7,1357.6L1669.6,1359.1L1685.7,1357.3L1701.1,1357.9L1717.2,1354L1734.1,1345.8L1750.4,1335.9L1766.1,1329L1782.1,1325.3L1799,1325.8L1815.2,1316.2L1831.4,1312.1L1847.6,1312L1863.5,1309.3L1879.4,1311.9L1895.1,1314.2L1910.7,1312.8L1926.9,1306.3L1943.8,1307.5L1960,1306.8L1960,2560Z" fill="url(#m0)" filter="url(#soft)"/><rect x="-50" y="1294.4" width="2020" height="128" fill="#fbeee8" opacity="0.55" filter="url(#mist)"/><linearGradient id="m1" x1="0" y1="0" x2="0" y2="1"><stop offset="0" stop-color="#c29cc0"/><stop offset="0.35" stop-color="#e3bfc9"/></linearGradient><path d="M-40,2560L-40,1298.5L-24.8,1300L-8.3,1305.2L7.7,1313.9L23.9,1319.5L39.4,1330.9L55.3,1339.3L72.1,1344.3L88.7,1346.4L104.6,1348.4L119.6,1359.7L135.4,1362.4L150.6,1359.9L165.9,1367.2L181,1373L195.2,1382.6L210.2,1398.7L226.5,1392.2L242.6,1392.1L258.6,1385L274.9,1379.7L290.4,1374.5L306.8,1377L323.7,1380.1L341.2,1378.1L357.6,1384.1L373.5,1383.8L388.6,1377.8L404.8,1378.1L418.8,1385.5L434.1,1391.4L449.7,1397.5L464,1400.1L477.9,1394.5L492.7,1392.2L507.1,1389.4L521.6,1394.4L537.2,1399.8L552.9,1397.4L568.3,1389.9L583.8,1383.7L598.1,1373.8L613.5,1361.1L629.1,1361.9L644.7,1353.4L660.2,1350.5L676,1354L692.7,1354.9L708.2,1355L723.4,1352.3L739.3,1355.2L755.1,1351.2L771.4,1346.3L787.4,1344.9L802.6,1334.4L816.6,1330.6L831.4,1325.2L845.8,1323.8L859.6,1320.6L874.8,1325.1L888.6,1329.2L904.5,1324.2L919.4,1322L933.7,1323.9L949.2,1317L963.2,1303L976.8,1296.3L990.7,1289.1L1005.8,1288.8L1020.3,1291L1035.2,1289.7L1051.5,1287.9L1067.2,1288.3L1081.7,1289.9L1096.1,1288.9L1111.6,1286.4L1126.6,1285.9L1141.5,1298.6L1157.6,1305.6L1172.9,1309.9L1189.2,1313L1205.2,1316.8L1220,1313.8L1235.2,1320.5L1249,1328.3L1264.8,1328.3L1281,1320.2L1297.6,1320.2L1313.6,1315.5L1330.2,1307L1345.8,1304.5L1362.1,1306.7L1379,1305.7L1394.6,1295.9L1410.8,1286.8L1426.1,1282.8L1440.9,1278L1458.5,1271.8L1474.9,1271.2L1491,1276.6L1508.6,1278.9L1525.4,1279.8L1541.7,1277.9L1558.9,1272.7L1574.8,1273.3L1590.8,1278.5L1607.7,1274.4L1623.8,1272.9L1639.5,1275.9L1654.7,1286.4L1670.5,1292.6L1686.3,1297.6L1701.6,1294L1716.4,1295.2L1731.7,1299.8L1747.1,1294.5L1763.7,1297.6L1780.4,1299.2L1796.8,1307.4L1813.9,1309.7L1830.2,1308.5L1846.5,1310.7L1862,1314.8L1877.1,1315.3L1893.3,1312.4L1910.7,1321L1926.7,1324.9L1943,1325.8L1960,1330.7L1960,2560Z" fill="url(#m1)" filter="url(#soft)"/><rect x="-50" y="1396.8" width="2020" height="128" fill="#fbeee8" opacity="0.5" filter="url(#mist)"/><linearGradient id="m2" x1="0" y1="0" x2="0" y2="1"><stop offset="0" stop-color="#9786b5"/><stop offset="0.35" stop-color="#c8adc8"/></linearGradient><path d="M-40,2560L-40,1410.9L-23.6,1404.7L-5.8,1405.6L10.2,1401.6L26.5,1392.7L42.8,1395.9L59.9,1404.5L76.4,1406.6L92.4,1405L109.5,1403.9L125.2,1404.1L141.5,1389.6L156.6,1385.2L173.7,1379.7L189.4,1381.1L204.5,1386.5L220.5,1387.3L235.6,1381.6L251,1365.6L267.1,1360.8L282,1349.9L298.7,1341.3L315.2,1325.6L331.4,1314.1L346.4,1312.2L361.7,1311.1L375.4,1302.8L391.1,1296.3L407,1285.4L422.1,1280.7L436.5,1269L451.1,1267.8L466.2,1261.7L480.1,1257.7L494.5,1250.9L509.5,1249.1L525.4,1240.7L540.8,1245L557.1,1239.1L571.9,1241.8L587.9,1252.6L604.2,1250.4L620.4,1255.9L635.9,1261.7L650.8,1261.5L666.8,1272.4L681.9,1274.6L698.6,1288.5L715.4,1294.9L731.9,1301.9L747.1,1304.5L764.3,1300.8L780.8,1298.4L796.3,1296.5L811.9,1292.6L828.4,1289.8L845,1283.4L861.2,1276.4L876.6,1275.9L892.2,1267.8L908.5,1256.7L924.5,1252.2L940.7,1249.1L956.4,1251.1L971.1,1257.8L988.5,1254.2L1004.9,1248.6L1020.4,1250L1036.1,1257.7L1051.3,1273.9L1067.6,1280.9L1083,1281.7L1099.6,1286.6L1114.3,1286.9L1128.2,1285.3L1143.8,1291.8L1158.2,1302.7L1174.1,1314.9L1189.8,1319.1L1204.8,1329.3L1219.5,1335.1L1234.1,1339.5L1249.6,1340.9L1264.4,1339L1279.6,1343.9L1294.9,1348.5L1310.4,1356.7L1326,1366.4L1340.1,1375.3L1355.2,1385.9L1371.1,1399.6L1387.1,1407.9L1401.9,1412.6L1418.7,1414L1436.2,1415.7L1451.7,1421.5L1467.8,1419.6L1484.5,1419.1L1500.2,1419.2L1515.3,1408.3L1531,1400.8L1547.1,1396L1563.2,1399.1L1580.4,1399L1597.5,1407.9L1613,1398.5L1629.7,1388.1L1645.2,1384.8L1660.8,1386L1676.3,1386.6L1691.3,1389L1706.3,1393.2L1720,1388.3L1735.6,1398.5L1749.8,1410.4L1764.5,1424.4L1778.6,1429.2L1794.1,1432.8L1809.7,1439.5L1824.7,1439.6L1841.2,1437.1L1856.3,1438.8L1871.3,1433L1885,1429.6L1899.1,1429.6L1915,1427.4L1930.8,1425.9L1944.6,1436.1L1960,1440.1L1960,2560Z" fill="url(#m2)" filter="url(#soft)"/><rect x="-50" y="1499.2" width="2020" height="128" fill="#fbeee8" opacity="0.45" filter="url(#mist)"/><linearGradient id="m3" x1="0" y1="0" x2="0" y2="1"><stop offset="0" stop-color="#76709f"/><stop offset="0.35" stop-color="#a996bd"/></linearGradient><path d="M-40,2560L-40,1639.8L-24.3,1644.6L-9.1,1647L5.3,1645.8L19.6,1638.5L35,1634.3L51.2,1619.5L66.7,1609.3L81.8,1606.5L98.9,1606.8L114.6,1608.8L130.9,1609.7L145.7,1613.3L160.7,1608.2L177,1608.9L191.2,1612.3L205.7,1615.1L221.9,1608.3L237.5,1611.8L254.4,1607.1L269.8,1611.9L285.9,1603.3L303,1593.7L321.3,1587.4L338.4,1575.8L353.3,1568.9L367.6,1573.2L382.6,1565.5L398.7,1567.3L414.1,1578.7L430.7,1584.2L446.6,1582.4L463.9,1591.8L479.5,1594.7L493.4,1591.4L510.3,1584.1L525.6,1575.9L539.1,1572.7L553.1,1568.3L569,1576.6L583.6,1579.4L598.7,1580.7L613.7,1585.1L629.3,1586.2L644.3,1579L659.7,1568.3L674.2,1554.3L691.3,1555.8L707,1547.4L723.2,1547.6L737.7,1543.3L753.4,1545.9L767.8,1557.6L782.5,1544.5L798.4,1540.9L813.5,1536.9L827.4,1540.6L841.9,1549.3L857.6,1561.5L872.7,1564.7L888,1568L904.5,1572L920.7,1565.6L936,1560.7L951.9,1562.5L966.2,1563.3L982.2,1564.4L997.9,1564.8L1014.3,1555.7L1032,1549.6L1048.6,1541.3L1064.6,1537.4L1080.2,1541.1L1096.6,1539.8L1113,1540.2L1128.6,1538.6L1143,1534.1L1156.5,1538.2L1171.4,1533.2L1186.6,1535.6L1201.8,1545.6L1219.7,1554L1237,1565L1252.8,1567L1269.3,1576.4L1284.6,1579.4L1301,1585.7L1317.9,1580.5L1333.1,1576L1348.8,1577.7L1364.4,1575.8L1381.7,1585L1397.5,1588.2L1414.4,1589.1L1429.9,1594.7L1447.1,1596.5L1463.3,1601.1L1479.4,1597.6L1494.2,1598.1L1510,1594.6L1525.2,1589.5L1539,1577.6L1554.1,1570.8L1569.6,1561.8L1584,1563.2L1598,1562.7L1613.5,1553.5L1629.6,1556.7L1644.2,1549.4L1659.5,1535.4L1675.4,1529.3L1690.8,1529.9L1707.2,1521.4L1723.4,1529.5L1738.5,1532.6L1754.1,1540.3L1770.3,1546.2L1787.3,1549.1L1803.7,1543.2L1819.8,1547.9L1834.6,1549.4L1850.2,1539.5L1866.5,1540.6L1880.3,1547.6L1895.6,1547.9L1912,1544.3L1928.1,1537.8L1943.3,1537.9L1960,1528.8L1960,2560Z" fill="url(#m3)" filter="url(#soft)"/><rect x="-50" y="1627.2" width="2020" height="128" fill="#fbeee8" opacity="0.4" filter="url(#mist)"/><linearGradient id="m4" x1="0" y1="0" x2="0" y2="1"><stop offset="0" stop-color="#5a5a86"/><stop offset="0.35" stop-color="#86809f"/></linearGradient><path d="M-40,2560L-40,1677.9L-23.3,1673.9L-6.8,1675.6L8.3,1671.3L24.4,1657.4L40.8,1651.3L56.3,1639.6L71.2,1641.5L87.2,1635.9L102.8,1634.8L118.7,1635.2L133,1633.9L148.6,1641.1L162.1,1639.1L177.3,1627.9L192.5,1627.2L208.7,1631.6L224.7,1635.6L241.3,1629.9L257.3,1631.9L271.8,1637.7L288.6,1639.6L306.2,1637.1L321.8,1647.9L338.1,1653.4L354.1,1655.1L371.5,1646.4L387.5,1642.7L402.4,1647.8L418.3,1646.7L433.7,1651.6L450.8,1652.3L466.7,1650.6L482.6,1658.5L498.2,1665.1L514.8,1668.3L530.9,1662L547.1,1671.7L561.9,1670.5L576,1682.3L591.2,1691.6L607.7,1685.6L622.9,1687L639,1681.4L654.6,1685.3L670.3,1690.2L685.4,1684.8L700,1693.5L714.5,1692.9L730.2,1698.8L746.8,1706.1L761.2,1705.8L776.7,1706.5L790.5,1705L805.9,1708.7L821.4,1708.8L836.5,1714.6L852.3,1718.8L866.5,1733L881.1,1733.5L896.4,1733.4L910.7,1741L926.3,1748.7L941.1,1756.7L955.7,1756.7L970.4,1757.2L984.6,1746.7L1000.6,1754.5L1015.2,1753.1L1031,1742.9L1045.8,1736.6L1062.8,1724L1078.1,1719.3L1092.3,1720L1107.6,1712.1L1122.5,1715.8L1138.1,1721.6L1154.4,1718.8L1169.7,1724.1L1185.6,1721L1202.8,1714.9L1218.5,1713L1235.9,1701.2L1250.9,1694.2L1266.9,1693.3L1283.2,1695.1L1298.2,1691.1L1314.6,1693.5L1329.7,1700.8L1345.7,1691.7L1360.3,1684.5L1376.1,1688.8L1390.6,1683.2L1405.2,1684.7L1421.4,1682L1435.5,1677.8L1449.3,1667.7L1463.9,1672.9L1479.4,1672.9L1495.2,1675.3L1511.8,1680.5L1527,1679.5L1543.3,1680L1560.1,1678.1L1577.2,1669.1L1594.9,1668.4L1611.8,1666.6L1627.9,1665.2L1643.8,1654.6L1660.2,1657.2L1677.4,1655L1693,1662.1L1709.8,1670L1724.8,1670.4L1740.9,1668.8L1755.5,1665.8L1770.2,1656.9L1785.2,1665.4L1801.7,1670.6L1816.3,1670.8L1832.3,1671.1L1849.2,1683.5L1865.2,1686.8L1880,1694.3L1895.7,1701.7L1911.5,1692.2L1927.6,1693.3L1944.1,1692.6L1960,1701.2L1960,2560Z" fill="url(#m4)" filter="url(#soft)"/><rect x="-50" y="1755.2" width="2020" height="128" fill="#fbeee8" opacity="0.3" filter="url(#mist)"/>
<rect x="0" y="1996.8" width="1920" height="563.2" fill="url(#lake)"/>
<rect x="974.4" y="1996.8" width="48" height="230.4" fill="#fff0cf" opacity="0.55" filter="url(#mist)"/>
<rect x="-50" y="1966.8" width="2020" height="80" fill="#fdf1ea" opacity="0.5" filter="url(#mist)"/>
<linearGradient id="hill" x1="0" y1="0" x2="0" y2="1"><stop offset="0" stop-color="#3a3148"/><stop offset="1" stop-color="#1f1a29"/></linearGradient>
<path d="M-40,2560 L-40,2432 C230.4,2380.8 499.2,2086.8 691.2,2040.8 L729.6,2040.8 L782.4,2034.6 L835.2,2024.3 L888,2013.1 L940.8,2001.4 L993.6,1984 L1046.4,1964.9 L1099.2,1947.8 L1152,1930.5 L1204.8,1915.1 L1257.6,1895 L1310.4,1874 L1363.2,1849.9 L1416,1821.6 L1468.8,1793.9 L1521.6,1774.7 L1574.4,1746.7 L1627.2,1728.7 L1680,1699.3 L1732.8,1676.5 L1785.6,1647.1 L1838.4,1604.5 L1891.2,1588.2 L1944,1561.7 L1996.8,1538.7 L1960,2560Z" fill="url(#hill)"/>
<g fill="#231d30"><path d="M875.4,2050 Q899.6,2034 910,2010.1 Q920.4,2034 944.6,2050Z"/><path d="M881.2,2027.8 Q901.4,2011.8 910,1987.9 Q918.7,2011.8 938.8,2027.8Z"/><path d="M886.9,2005.6 Q903.1,1989.7 910,1965.7 Q916.9,1989.7 933.1,2005.6Z"/><path d="M892.7,1983.5 Q904.8,1967.5 910,1943.5 Q915.2,1967.5 927.3,1983.5Z"/><path d="M898.5,1961.3 Q906.5,1945.3 910,1921.3 Q913.5,1945.3 921.5,1961.3Z"/><path d="M904.2,1939.1 Q908.3,1923.1 910,1899.2 Q911.7,1923.1 915.8,1939.1Z"/></g><g fill="#231d30"><path d="M893.6,2040.7 Q909.5,2030.3 916.3,2014.5 Q923.1,2030.3 939,2040.7Z"/><path d="M897.4,2026.2 Q910.6,2015.7 916.3,2000 Q922,2015.7 935.2,2026.2Z"/><path d="M901.2,2011.6 Q911.8,2001.1 916.3,1985.4 Q920.9,2001.1 931.5,2011.6Z"/><path d="M905,1997.1 Q912.9,1986.6 916.3,1970.9 Q919.7,1986.6 927.7,1997.1Z"/><path d="M908.8,1982.5 Q914.1,1972 916.3,1956.3 Q918.6,1972 923.9,1982.5Z"/><path d="M912.5,1968 Q915.2,1957.5 916.3,1941.8 Q917.5,1957.5 920.1,1968Z"/></g><g fill="#231d30"><path d="M928.9,2021.3 Q946.3,2009.8 953.8,1992.6 Q961.2,2009.8 978.6,2021.3Z"/><path d="M933.1,2005.4 Q947.6,1993.9 953.8,1976.7 Q960,1993.9 974.5,2005.4Z"/><path d="M937.2,1989.5 Q948.8,1978 953.8,1960.8 Q958.8,1978 970.3,1989.5Z"/><path d="M941.4,1973.5 Q950.1,1962.1 953.8,1944.9 Q957.5,1962.1 966.2,1973.5Z"/><path d="M945.5,1957.6 Q951.3,1946.1 953.8,1928.9 Q956.3,1946.1 962.1,1957.6Z"/><path d="M949.6,1941.7 Q952.5,1930.2 953.8,1913 Q955,1930.2 957.9,1941.7Z"/></g><g fill="#231d30"><path d="M915,2020.4 Q942.9,2002 954.9,1974.4 Q966.9,2002 994.8,2020.4Z"/><path d="M921.7,1994.9 Q944.9,1976.5 954.9,1948.9 Q964.9,1976.5 988.1,1994.9Z"/><path d="M928.3,1969.3 Q946.9,1950.9 954.9,1923.3 Q962.9,1950.9 981.5,1969.3Z"/><path d="M935,1943.8 Q948.9,1925.4 954.9,1897.8 Q960.9,1925.4 974.8,1943.8Z"/><path d="M941.6,1918.2 Q950.9,1899.8 954.9,1872.2 Q958.9,1899.8 968.2,1918.2Z"/><path d="M948.3,1892.7 Q952.9,1874.3 954.9,1846.7 Q956.9,1874.3 961.5,1892.7Z"/></g><g fill="#231d30"><path d="M980.3,2023.4 Q1000.2,2010.3 1008.7,1990.7 Q1017.2,2010.3 1037,2023.4Z"/><path d="M985.1,2005.2 Q1001.6,1992.1 1008.7,1972.5 Q1015.8,1992.1 1032.3,2005.2Z"/><path d="M989.8,1987 Q1003,1974 1008.7,1954.4 Q1014.3,1974 1027.6,1987Z"/><path d="M994.5,1968.9 Q1004.4,1955.8 1008.7,1936.2 Q1012.9,1955.8 1022.8,1968.9Z"/><path d="M999.2,1950.7 Q1005.8,1937.7 1008.7,1918.1 Q1011.5,1937.7 1018.1,1950.7Z"/><path d="M1004,1932.6 Q1007.3,1919.5 1008.7,1899.9 Q1010.1,1919.5 1013.4,1932.6Z"/></g><g fill="#231d30"><path d="M928.2,2003.6 Q960.8,1982.1 974.8,1949.9 Q988.8,1982.1 1021.4,2003.6Z"/><path d="M936,1973.8 Q963.2,1952.3 974.8,1920 Q986.5,1952.3 1013.7,1973.8Z"/><path d="M943.8,1943.9 Q965.5,1922.4 974.8,1890.1 Q984.1,1922.4 1005.9,1943.9Z"/><path d="M951.5,1914 Q967.8,1892.5 974.8,1860.3 Q981.8,1892.5 998.1,1914Z"/><path d="M959.3,1884.1 Q970.2,1862.6 974.8,1830.4 Q979.5,1862.6 990.4,1884.1Z"/><path d="M967.1,1854.3 Q972.5,1832.8 974.8,1800.5 Q977.2,1832.8 982.6,1854.3Z"/></g><g fill="#231d30"><path d="M1036.5,2000.6 Q1053.5,1989.3 1060.9,1972.4 Q1068.2,1989.3 1085.2,2000.6Z"/><path d="M1040.5,1984.9 Q1054.8,1973.7 1060.9,1956.8 Q1067,1973.7 1081.2,1984.9Z"/><path d="M1044.6,1969.3 Q1056,1958 1060.9,1941.1 Q1065.7,1958 1077.1,1969.3Z"/><path d="M1048.7,1953.7 Q1057.2,1942.4 1060.9,1925.5 Q1064.5,1942.4 1073.1,1953.7Z"/><path d="M1052.7,1938 Q1058.4,1926.8 1060.9,1909.9 Q1063.3,1926.8 1069,1938Z"/><path d="M1056.8,1922.4 Q1059.6,1911.1 1060.9,1894.2 Q1062.1,1911.1 1064.9,1922.4Z"/></g><g fill="#231d30"><path d="M989.2,2000.7 Q1015.1,1983.6 1026.2,1957.9 Q1037.3,1983.6 1063.3,2000.7Z"/><path d="M995.3,1976.9 Q1017,1959.8 1026.2,1934.2 Q1035.5,1959.8 1057.1,1976.9Z"/><path d="M1001.5,1953.2 Q1018.8,1936.1 1026.2,1910.4 Q1033.6,1936.1 1050.9,1953.2Z"/><path d="M1007.7,1929.4 Q1020.7,1912.3 1026.2,1886.6 Q1031.8,1912.3 1044.8,1929.4Z"/><path d="M1013.9,1905.6 Q1022.5,1888.5 1026.2,1862.9 Q1029.9,1888.5 1038.6,1905.6Z"/><path d="M1020,1881.9 Q1024.4,1864.8 1026.2,1839.1 Q1028.1,1864.8 1032.4,1881.9Z"/></g><g fill="#231d30"><path d="M1055.3,1965.6 Q1086.1,1945.2 1099.3,1914.8 Q1112.5,1945.2 1143.3,1965.6Z"/><path d="M1062.6,1937.3 Q1088.3,1917 1099.3,1886.6 Q1110.3,1917 1136,1937.3Z"/><path d="M1070,1909.1 Q1090.5,1888.8 1099.3,1858.4 Q1108.1,1888.8 1128.7,1909.1Z"/><path d="M1077.3,1880.9 Q1092.7,1860.6 1099.3,1830.1 Q1105.9,1860.6 1121.3,1880.9Z"/><path d="M1084.7,1852.7 Q1094.9,1832.4 1099.3,1801.9 Q1103.7,1832.4 1114,1852.7Z"/><path d="M1092,1824.5 Q1097.1,1804.2 1099.3,1773.7 Q1101.5,1804.2 1106.7,1824.5Z"/></g><g fill="#231d30"><path d="M1058.5,1986.4 Q1088.2,1966.9 1100.9,1937.6 Q1113.5,1966.9 1143.2,1986.4Z"/><path d="M1065.6,1959.3 Q1090.3,1939.7 1100.9,1910.5 Q1111.4,1939.7 1136.1,1959.3Z"/><path d="M1072.7,1932.1 Q1092.4,1912.6 1100.9,1883.3 Q1109.3,1912.6 1129.1,1932.1Z"/><path d="M1079.7,1905 Q1094.5,1885.5 1100.9,1856.2 Q1107.2,1885.5 1122,1905Z"/><path d="M1086.8,1877.9 Q1096.6,1858.4 1100.9,1829.1 Q1105.1,1858.4 1115,1877.9Z"/><path d="M1093.8,1850.8 Q1098.7,1831.3 1100.9,1802 Q1103,1831.3 1107.9,1850.8Z"/></g><g fill="#231d30"><path d="M1138.9,1967.8 Q1158.6,1954.8 1167,1935.3 Q1175.5,1954.8 1195.2,1967.8Z"/><path d="M1143.6,1949.7 Q1160,1936.7 1167,1917.2 Q1174.1,1936.7 1190.5,1949.7Z"/><path d="M1148.2,1931.7 Q1161.4,1918.7 1167,1899.2 Q1172.6,1918.7 1185.8,1931.7Z"/><path d="M1152.9,1913.6 Q1162.8,1900.6 1167,1881.1 Q1171.2,1900.6 1181.1,1913.6Z"/><path d="M1157.6,1895.6 Q1164.2,1882.6 1167,1863.1 Q1169.8,1882.6 1176.4,1895.6Z"/><path d="M1162.3,1877.5 Q1165.6,1864.5 1167,1845 Q1168.4,1864.5 1171.7,1877.5Z"/></g><g fill="#231d30"><path d="M1090.8,1945.9 Q1120.8,1926.1 1133.7,1896.4 Q1146.5,1926.1 1176.6,1945.9Z"/><path d="M1097.9,1918.4 Q1122.9,1898.6 1133.7,1868.8 Q1144.4,1898.6 1169.4,1918.4Z"/><path d="M1105.1,1890.9 Q1125.1,1871 1133.7,1841.3 Q1142.3,1871 1162.3,1890.9Z"/><path d="M1112.2,1863.3 Q1127.2,1843.5 1133.7,1813.8 Q1140.1,1843.5 1155.1,1863.3Z"/><path d="M1119.4,1835.8 Q1129.4,1816 1133.7,1786.3 Q1138,1816 1148,1835.8Z"/><path d="M1126.5,1808.3 Q1131.5,1788.5 1133.7,1758.8 Q1135.8,1788.5 1140.8,1808.3Z"/></g><g fill="#231d30"><path d="M1160.9,1929.1 Q1181.4,1915.6 1190.1,1895.3 Q1198.9,1915.6 1219.4,1929.1Z"/><path d="M1165.8,1910.3 Q1182.8,1896.8 1190.1,1876.6 Q1197.5,1896.8 1214.5,1910.3Z"/><path d="M1170.6,1891.6 Q1184.3,1878.1 1190.1,1857.8 Q1196,1878.1 1209.7,1891.6Z"/><path d="M1175.5,1872.8 Q1185.8,1859.3 1190.1,1839 Q1194.5,1859.3 1204.8,1872.8Z"/><path d="M1180.4,1854.1 Q1187.2,1840.5 1190.1,1820.3 Q1193.1,1840.5 1199.9,1854.1Z"/><path d="M1185.3,1835.3 Q1188.7,1821.8 1190.1,1801.5 Q1191.6,1821.8 1195,1835.3Z"/></g><g fill="#231d30"><path d="M1124,1963.6 Q1161,1939.3 1176.8,1902.7 Q1192.6,1939.3 1229.6,1963.6Z"/><path d="M1132.8,1929.8 Q1163.6,1905.4 1176.8,1868.9 Q1190,1905.4 1220.8,1929.8Z"/><path d="M1141.6,1896 Q1166.2,1871.6 1176.8,1835.1 Q1187.3,1871.6 1212,1896Z"/><path d="M1150.4,1862.1 Q1168.9,1837.8 1176.8,1801.3 Q1184.7,1837.8 1203.2,1862.1Z"/><path d="M1159.2,1828.3 Q1171.5,1804 1176.8,1767.4 Q1182.1,1804 1194.4,1828.3Z"/><path d="M1168,1794.5 Q1174.1,1770.1 1176.8,1733.6 Q1179.4,1770.1 1185.6,1794.5Z"/></g><g fill="#231d30"><path d="M1224.6,1921.6 Q1254.2,1902.1 1266.8,1872.9 Q1279.5,1902.1 1309,1921.6Z"/><path d="M1231.7,1894.6 Q1256.3,1875.1 1266.8,1845.9 Q1277.4,1875.1 1302,1894.6Z"/><path d="M1238.7,1867.5 Q1258.4,1848 1266.8,1818.8 Q1275.3,1848 1295,1867.5Z"/><path d="M1245.7,1840.5 Q1260.5,1821 1266.8,1791.7 Q1273.2,1821 1287.9,1840.5Z"/><path d="M1252.8,1813.4 Q1262.6,1793.9 1266.8,1764.7 Q1271.1,1793.9 1280.9,1813.4Z"/><path d="M1259.8,1786.3 Q1264.7,1766.9 1266.8,1737.6 Q1268.9,1766.9 1273.9,1786.3Z"/></g><g fill="#231d30"><path d="M1240,1928 Q1269.2,1908.8 1281.7,1880 Q1294.1,1908.8 1323.3,1928Z"/><path d="M1247,1901.3 Q1271.2,1882.1 1281.7,1853.3 Q1292.1,1882.1 1316.4,1901.3Z"/><path d="M1253.9,1874.6 Q1273.3,1855.4 1281.7,1826.6 Q1290,1855.4 1309.4,1874.6Z"/><path d="M1260.8,1848 Q1275.4,1828.7 1281.7,1799.9 Q1287.9,1828.7 1302.5,1848Z"/><path d="M1267.8,1821.3 Q1277.5,1802 1281.7,1773.2 Q1285.8,1802 1295.5,1821.3Z"/><path d="M1274.7,1794.6 Q1279.6,1775.3 1281.7,1746.5 Q1283.7,1775.3 1288.6,1794.6Z"/></g><g fill="#231d30"><path d="M1291.1,1885.1 Q1325.4,1862.5 1340.1,1828.6 Q1354.7,1862.5 1389,1885.1Z"/><path d="M1299.2,1853.7 Q1327.8,1831.1 1340.1,1797.2 Q1352.3,1831.1 1380.9,1853.7Z"/><path d="M1307.4,1822.4 Q1330.3,1799.8 1340.1,1765.9 Q1349.8,1799.8 1372.7,1822.4Z"/><path d="M1315.6,1791 Q1332.7,1768.4 1340.1,1734.5 Q1347.4,1768.4 1364.5,1791Z"/><path d="M1323.7,1759.6 Q1335.2,1737 1340.1,1703.1 Q1345,1737 1356.4,1759.6Z"/><path d="M1331.9,1728.2 Q1337.6,1705.6 1340.1,1671.7 Q1342.5,1705.6 1348.2,1728.2Z"/></g><g fill="#231d30"><path d="M1234.6,1913.4 Q1269.2,1890.6 1284,1856.4 Q1298.8,1890.6 1333.4,1913.4Z"/><path d="M1242.8,1881.8 Q1271.7,1859 1284,1824.8 Q1296.3,1859 1325.2,1881.8Z"/><path d="M1251.1,1850.1 Q1274.1,1827.3 1284,1793.1 Q1293.9,1827.3 1316.9,1850.1Z"/><path d="M1259.3,1818.4 Q1276.6,1795.7 1284,1761.5 Q1291.4,1795.7 1308.7,1818.4Z"/><path d="M1267.5,1786.8 Q1279.1,1764 1284,1729.8 Q1288.9,1764 1300.5,1786.8Z"/><path d="M1275.8,1755.1 Q1281.5,1732.3 1284,1698.1 Q1286.5,1732.3 1292.2,1755.1Z"/></g><g fill="#231d30"><path d="M1322.5,1870.6 Q1348.3,1853.6 1359.3,1828.2 Q1370.4,1853.6 1396.1,1870.6Z"/><path d="M1328.7,1847 Q1350.1,1830 1359.3,1804.6 Q1368.5,1830 1390,1847Z"/><path d="M1334.8,1823.4 Q1352,1806.4 1359.3,1781 Q1366.7,1806.4 1383.9,1823.4Z"/><path d="M1340.9,1799.8 Q1353.8,1782.9 1359.3,1757.4 Q1364.8,1782.9 1377.7,1799.8Z"/><path d="M1347.1,1776.2 Q1355.6,1759.3 1359.3,1733.8 Q1363,1759.3 1371.6,1776.2Z"/><path d="M1353.2,1752.7 Q1357.5,1735.7 1359.3,1710.2 Q1361.2,1735.7 1365.5,1752.7Z"/></g><g fill="#231d30"><path d="M1305,1870.7 Q1350.1,1841 1369.4,1796.4 Q1388.7,1841 1433.8,1870.7Z"/><path d="M1315.7,1829.4 Q1353.3,1799.7 1369.4,1755.1 Q1385.5,1799.7 1423,1829.4Z"/><path d="M1326.5,1788.2 Q1356.5,1758.4 1369.4,1713.9 Q1382.3,1758.4 1412.3,1788.2Z"/><path d="M1337.2,1746.9 Q1359.7,1717.2 1369.4,1672.6 Q1379,1717.2 1401.6,1746.9Z"/><path d="M1347.9,1705.6 Q1362.9,1675.9 1369.4,1631.3 Q1375.8,1675.9 1390.8,1705.6Z"/><path d="M1358.7,1664.4 Q1366.2,1634.6 1369.4,1590.1 Q1372.6,1634.6 1380.1,1664.4Z"/></g><g fill="#231d30"><path d="M1349.4,1835.9 Q1389.2,1809.7 1406.2,1770.3 Q1423.3,1809.7 1463.1,1835.9Z"/><path d="M1358.8,1799.5 Q1392,1773.2 1406.2,1733.9 Q1420.5,1773.2 1453.6,1799.5Z"/><path d="M1368.3,1763 Q1394.9,1736.8 1406.2,1697.4 Q1417.6,1736.8 1444.1,1763Z"/><path d="M1377.8,1726.6 Q1397.7,1700.3 1406.2,1660.9 Q1414.8,1700.3 1434.7,1726.6Z"/><path d="M1387.3,1690.1 Q1400.5,1663.9 1406.2,1624.5 Q1411.9,1663.9 1425.2,1690.1Z"/><path d="M1396.8,1653.7 Q1403.4,1627.4 1406.2,1588 Q1409.1,1627.4 1415.7,1653.7Z"/></g><g fill="#231d30"><path d="M1377.3,1837.8 Q1400.9,1822.2 1411,1798.9 Q1421.1,1822.2 1444.8,1837.8Z"/><path d="M1382.9,1816.2 Q1402.6,1800.6 1411,1777.2 Q1419.4,1800.6 1439.1,1816.2Z"/><path d="M1388.5,1794.5 Q1404.3,1779 1411,1755.6 Q1417.8,1779 1433.5,1794.5Z"/><path d="M1394.1,1772.9 Q1405.9,1757.3 1411,1734 Q1416.1,1757.3 1427.9,1772.9Z"/><path d="M1399.8,1751.3 Q1407.6,1735.7 1411,1712.3 Q1414.4,1735.7 1422.3,1751.3Z"/><path d="M1405.4,1729.6 Q1409.3,1714.1 1411,1690.7 Q1412.7,1714.1 1416.6,1729.6Z"/></g><g fill="#231d30"><path d="M1428.5,1833.2 Q1459.1,1812.9 1472.3,1782.6 Q1485.4,1812.9 1516.1,1833.2Z"/><path d="M1435.8,1805.1 Q1461.3,1784.9 1472.3,1754.5 Q1483.2,1784.9 1508.8,1805.1Z"/><path d="M1443.1,1777 Q1463.5,1756.8 1472.3,1726.4 Q1481,1756.8 1501.5,1777Z"/><path d="M1450.4,1748.9 Q1465.7,1728.7 1472.3,1698.4 Q1478.8,1728.7 1494.2,1748.9Z"/><path d="M1457.7,1720.8 Q1467.9,1700.6 1472.3,1670.3 Q1476.6,1700.6 1486.9,1720.8Z"/><path d="M1465,1692.7 Q1470.1,1672.5 1472.3,1642.2 Q1474.5,1672.5 1479.6,1692.7Z"/></g><g fill="#231d30"><path d="M1419.6,1828.2 Q1449.1,1808.7 1461.7,1779.5 Q1474.4,1808.7 1503.9,1828.2Z"/><path d="M1426.6,1801.2 Q1451.2,1781.7 1461.7,1752.5 Q1472.3,1781.7 1496.9,1801.2Z"/><path d="M1433.6,1774.1 Q1453.3,1754.7 1461.7,1725.5 Q1470.2,1754.7 1489.8,1774.1Z"/><path d="M1440.6,1747.1 Q1455.4,1727.6 1461.7,1698.4 Q1468,1727.6 1482.8,1747.1Z"/><path d="M1447.7,1720.1 Q1457.5,1700.6 1461.7,1671.4 Q1465.9,1700.6 1475.8,1720.1Z"/><path d="M1454.7,1693 Q1459.6,1673.6 1461.7,1644.4 Q1463.8,1673.6 1468.8,1693Z"/></g><g fill="#231d30"><path d="M1444.3,1817.3 Q1478.4,1794.7 1493,1761 Q1507.7,1794.7 1541.8,1817.3Z"/><path d="M1452.4,1786 Q1480.8,1763.5 1493,1729.7 Q1505.2,1763.5 1533.7,1786Z"/><path d="M1460.5,1754.7 Q1483.3,1732.2 1493,1698.5 Q1502.8,1732.2 1525.5,1754.7Z"/><path d="M1468.6,1723.5 Q1485.7,1701 1493,1667.2 Q1500.3,1701 1517.4,1723.5Z"/><path d="M1476.8,1692.2 Q1488.2,1669.7 1493,1635.9 Q1497.9,1669.7 1509.3,1692.2Z"/><path d="M1484.9,1661 Q1490.6,1638.4 1493,1604.7 Q1495.5,1638.4 1501.2,1661Z"/></g><g fill="#231d30"><path d="M1505.6,1821 Q1535.6,1801.2 1548.5,1771.4 Q1561.4,1801.2 1591.5,1821Z"/><path d="M1512.7,1793.4 Q1537.8,1773.6 1548.5,1743.9 Q1559.3,1773.6 1584.3,1793.4Z"/><path d="M1519.9,1765.9 Q1539.9,1746.1 1548.5,1716.4 Q1557.1,1746.1 1577.2,1765.9Z"/><path d="M1527.1,1738.4 Q1542.1,1718.6 1548.5,1688.8 Q1555,1718.6 1570,1738.4Z"/><path d="M1534.2,1710.8 Q1544.2,1691 1548.5,1661.3 Q1552.8,1691 1562.8,1710.8Z"/><path d="M1541.4,1683.3 Q1546.4,1663.5 1548.5,1633.8 Q1550.7,1663.5 1555.7,1683.3Z"/></g><g fill="#231d30"><path d="M1545,1796.6 Q1583.6,1771.1 1600.1,1733 Q1616.6,1771.1 1655.2,1796.6Z"/><path d="M1554.2,1761.2 Q1586.3,1735.8 1600.1,1697.7 Q1613.9,1735.8 1646,1761.2Z"/><path d="M1563.4,1725.9 Q1589.1,1700.5 1600.1,1662.3 Q1611.1,1700.5 1636.8,1725.9Z"/><path d="M1572.6,1690.6 Q1591.8,1665.2 1600.1,1627 Q1608.4,1665.2 1627.7,1690.6Z"/><path d="M1581.7,1655.3 Q1594.6,1629.9 1600.1,1591.7 Q1605.6,1629.9 1618.5,1655.3Z"/><path d="M1590.9,1620 Q1597.4,1594.5 1600.1,1556.4 Q1602.9,1594.5 1609.3,1620Z"/></g><g fill="#231d30"><path d="M1551.1,1795.4 Q1574.7,1779.8 1584.9,1756.4 Q1595,1779.8 1618.7,1795.4Z"/><path d="M1556.7,1773.7 Q1576.4,1758.1 1584.9,1734.7 Q1593.3,1758.1 1613,1773.7Z"/><path d="M1562.3,1752.1 Q1578.1,1736.5 1584.9,1713 Q1591.6,1736.5 1607.4,1752.1Z"/><path d="M1568,1730.4 Q1579.8,1714.8 1584.9,1691.4 Q1589.9,1714.8 1601.8,1730.4Z"/><path d="M1573.6,1708.7 Q1581.5,1693.1 1584.9,1669.7 Q1588.3,1693.1 1596.1,1708.7Z"/><path d="M1579.2,1687 Q1583.2,1671.4 1584.9,1648 Q1586.6,1671.4 1590.5,1687Z"/></g><g fill="#231d30"><path d="M1543,1750.5 Q1582.9,1724.2 1600,1684.8 Q1617,1724.2 1656.9,1750.5Z"/><path d="M1552.5,1714 Q1585.7,1687.8 1600,1648.4 Q1614.2,1687.8 1647.4,1714Z"/><path d="M1562,1677.6 Q1588.6,1651.3 1600,1611.9 Q1611.3,1651.3 1637.9,1677.6Z"/><path d="M1571.5,1641.1 Q1591.4,1614.8 1600,1575.4 Q1608.5,1614.8 1628.4,1641.1Z"/><path d="M1581,1604.6 Q1594.3,1578.3 1600,1538.9 Q1605.6,1578.3 1618.9,1604.6Z"/><path d="M1590.5,1568.1 Q1597.1,1541.9 1600,1502.5 Q1602.8,1541.9 1609.4,1568.1Z"/></g><g fill="#231d30"><path d="M1546.3,1775.3 Q1601.5,1738.9 1625.1,1684.4 Q1648.8,1738.9 1704,1775.3Z"/><path d="M1559.4,1724.8 Q1605.4,1688.4 1625.1,1633.8 Q1644.8,1688.4 1690.8,1724.8Z"/><path d="M1572.6,1674.2 Q1609.3,1637.9 1625.1,1583.3 Q1640.9,1637.9 1677.7,1674.2Z"/><path d="M1585.7,1623.7 Q1613.3,1587.3 1625.1,1532.7 Q1636.9,1587.3 1664.5,1623.7Z"/><path d="M1598.8,1573.2 Q1617.2,1536.8 1625.1,1482.2 Q1633,1536.8 1651.4,1573.2Z"/><path d="M1612,1522.6 Q1621.2,1486.2 1625.1,1431.6 Q1629.1,1486.2 1638.3,1522.6Z"/></g><g fill="#231d30"><path d="M1606.7,1746.5 Q1650.8,1717.4 1669.7,1673.8 Q1688.5,1717.4 1732.6,1746.5Z"/><path d="M1617.2,1706.1 Q1653.9,1677.1 1669.7,1633.5 Q1685.4,1677.1 1722.1,1706.1Z"/><path d="M1627.7,1665.8 Q1657.1,1636.7 1669.7,1593.2 Q1682.3,1636.7 1711.6,1665.8Z"/><path d="M1638.2,1625.4 Q1660.2,1596.4 1669.7,1552.8 Q1679.1,1596.4 1701.1,1625.4Z"/><path d="M1648.7,1585.1 Q1663.4,1556 1669.7,1512.5 Q1676,1556 1690.6,1585.1Z"/><path d="M1659.2,1544.8 Q1666.5,1515.7 1669.7,1472.1 Q1672.8,1515.7 1680.2,1544.8Z"/></g><g fill="#231d30"><path d="M1582.1,1745 Q1636,1709.5 1659.1,1656.2 Q1682.2,1709.5 1736.1,1745Z"/><path d="M1594.9,1695.7 Q1639.9,1660.1 1659.1,1606.8 Q1678.4,1660.1 1723.3,1695.7Z"/><path d="M1607.8,1646.3 Q1643.7,1610.7 1659.1,1557.4 Q1674.5,1610.7 1710.5,1646.3Z"/><path d="M1620.6,1596.9 Q1647.6,1561.4 1659.1,1508.1 Q1670.7,1561.4 1697.6,1596.9Z"/><path d="M1633.4,1547.5 Q1651.4,1512 1659.1,1458.7 Q1666.8,1512 1684.8,1547.5Z"/><path d="M1646.3,1498.2 Q1655.3,1462.6 1659.1,1409.3 Q1663,1462.6 1671.9,1498.2Z"/></g><g fill="#231d30"><path d="M1711.7,1688.2 Q1742.2,1668.1 1755.2,1637.9 Q1768.3,1668.1 1798.8,1688.2Z"/><path d="M1718.9,1660.2 Q1744.3,1640.1 1755.2,1610 Q1766.1,1640.1 1791.5,1660.2Z"/><path d="M1726.2,1632.3 Q1746.5,1612.2 1755.2,1582.1 Q1763.9,1612.2 1784.3,1632.3Z"/><path d="M1733.4,1604.4 Q1748.7,1584.3 1755.2,1554.1 Q1761.8,1584.3 1777,1604.4Z"/><path d="M1740.7,1576.5 Q1750.9,1556.4 1755.2,1526.2 Q1759.6,1556.4 1769.7,1576.5Z"/><path d="M1748,1548.6 Q1753,1528.5 1755.2,1498.3 Q1757.4,1528.5 1762.5,1548.6Z"/></g><g fill="#231d30"><path d="M1643.5,1708 Q1694,1674.7 1715.6,1624.8 Q1737.3,1674.7 1787.8,1708Z"/><path d="M1655.5,1661.8 Q1697.6,1628.5 1715.6,1578.6 Q1733.7,1628.5 1775.8,1661.8Z"/><path d="M1667.5,1615.5 Q1701.2,1582.3 1715.6,1532.3 Q1730.1,1582.3 1763.7,1615.5Z"/><path d="M1679.6,1569.3 Q1704.8,1536 1715.6,1486.1 Q1726.5,1536 1751.7,1569.3Z"/><path d="M1691.6,1523.1 Q1708.4,1489.8 1715.6,1439.8 Q1722.9,1489.8 1739.7,1523.1Z"/><path d="M1703.6,1476.8 Q1712,1443.5 1715.6,1393.6 Q1719.2,1443.5 1727.7,1476.8Z"/></g><g fill="#231d30"><path d="M1747.9,1689.1 Q1773.9,1672 1785,1646.3 Q1796.1,1672 1822,1689.1Z"/><path d="M1754.1,1665.3 Q1775.7,1648.2 1785,1622.6 Q1794.2,1648.2 1815.9,1665.3Z"/><path d="M1760.3,1641.6 Q1777.6,1624.5 1785,1598.8 Q1792.4,1624.5 1809.7,1641.6Z"/><path d="M1766.4,1617.8 Q1779.4,1600.7 1785,1575 Q1790.5,1600.7 1803.5,1617.8Z"/><path d="M1772.6,1594 Q1781.3,1576.9 1785,1551.3 Q1788.7,1576.9 1797.3,1594Z"/><path d="M1778.8,1570.3 Q1783.1,1553.2 1785,1527.5 Q1786.8,1553.2 1791.2,1570.3Z"/></g><g fill="#231d30"><path d="M1706.1,1695.2 Q1748.3,1667.4 1766.4,1625.7 Q1784.4,1667.4 1826.6,1695.2Z"/><path d="M1716.2,1656.6 Q1751.3,1628.8 1766.4,1587.1 Q1781.4,1628.8 1816.5,1656.6Z"/><path d="M1726.2,1618 Q1754.3,1590.2 1766.4,1548.5 Q1778.4,1590.2 1806.5,1618Z"/><path d="M1736.2,1579.4 Q1757.3,1551.6 1766.4,1509.9 Q1775.4,1551.6 1796.5,1579.4Z"/><path d="M1746.3,1540.8 Q1760.3,1513 1766.4,1471.3 Q1772.4,1513 1786.4,1540.8Z"/><path d="M1756.3,1502.2 Q1763.3,1474.4 1766.4,1432.7 Q1769.4,1474.4 1776.4,1502.2Z"/></g><g fill="#231d30"><path d="M1815.8,1616.8 Q1851.5,1593.3 1866.8,1558 Q1882.1,1593.3 1917.8,1616.8Z"/><path d="M1824.3,1584.1 Q1854,1560.6 1866.8,1525.3 Q1879.5,1560.6 1909.3,1584.1Z"/><path d="M1832.8,1551.4 Q1856.6,1527.9 1866.8,1492.6 Q1877,1527.9 1900.8,1551.4Z"/><path d="M1841.3,1518.8 Q1859.1,1495.2 1866.8,1459.9 Q1874.4,1495.2 1892.3,1518.8Z"/><path d="M1849.8,1486.1 Q1861.7,1462.5 1866.8,1427.2 Q1871.9,1462.5 1883.8,1486.1Z"/><path d="M1858.3,1453.4 Q1864.2,1429.8 1866.8,1394.5 Q1869.3,1429.8 1875.3,1453.4Z"/></g><g fill="#231d30"><path d="M1752.5,1617.5 Q1808.6,1580.5 1832.7,1524.9 Q1856.8,1580.5 1912.9,1617.5Z"/><path d="M1765.9,1566.1 Q1812.7,1529.1 1832.7,1473.5 Q1852.8,1529.1 1899.5,1566.1Z"/><path d="M1779.2,1514.7 Q1816.7,1477.6 1832.7,1422.1 Q1848.7,1477.6 1886.2,1514.7Z"/><path d="M1792.6,1463.2 Q1820.7,1426.2 1832.7,1370.7 Q1844.7,1426.2 1872.8,1463.2Z"/><path d="M1806,1411.8 Q1824.7,1374.8 1832.7,1319.3 Q1840.7,1374.8 1859.4,1411.8Z"/><path d="M1819.3,1360.4 Q1828.7,1323.4 1832.7,1267.9 Q1836.7,1323.4 1846.1,1360.4Z"/></g><g fill="#231d30"><path d="M1818.4,1598.7 Q1852.1,1576.5 1866.5,1543.2 Q1881,1576.5 1914.7,1598.7Z"/><path d="M1826.4,1567.8 Q1854.5,1545.6 1866.5,1512.3 Q1878.5,1545.6 1906.6,1567.8Z"/><path d="M1834.4,1537 Q1856.9,1514.8 1866.5,1481.4 Q1876.1,1514.8 1898.6,1537Z"/><path d="M1842.4,1506.1 Q1859.3,1483.9 1866.5,1450.6 Q1873.7,1483.9 1890.6,1506.1Z"/><path d="M1850.5,1475.3 Q1861.7,1453 1866.5,1419.7 Q1871.3,1453 1882.6,1475.3Z"/><path d="M1858.5,1444.4 Q1864.1,1422.2 1866.5,1388.8 Q1868.9,1422.2 1874.5,1444.4Z"/></g><g fill="#231d30"><path d="M1829.4,1612 Q1859,1592.5 1871.7,1563.3 Q1884.3,1592.5 1913.9,1612Z"/><path d="M1836.4,1585 Q1861.1,1565.4 1871.7,1536.2 Q1882.2,1565.4 1906.9,1585Z"/><path d="M1843.5,1557.9 Q1863.2,1538.4 1871.7,1509.1 Q1880.1,1538.4 1899.8,1557.9Z"/><path d="M1850.5,1530.8 Q1865.3,1511.3 1871.7,1482 Q1878,1511.3 1892.8,1530.8Z"/><path d="M1857.6,1503.7 Q1867.4,1484.2 1871.7,1454.9 Q1875.9,1484.2 1885.7,1503.7Z"/><path d="M1864.6,1476.6 Q1869.5,1457.1 1871.7,1427.8 Q1873.8,1457.1 1878.7,1476.6Z"/></g><g fill="#231d30"><path d="M1891.4,1590.2 Q1935.8,1560.9 1954.8,1517 Q1973.9,1560.9 2018.3,1590.2Z"/><path d="M1902,1549.5 Q1939,1520.3 1954.8,1476.3 Q1970.7,1520.3 2007.7,1549.5Z"/><path d="M1912.5,1508.9 Q1942.1,1479.6 1954.8,1435.7 Q1967.5,1479.6 1997.1,1508.9Z"/><path d="M1923.1,1468.2 Q1945.3,1438.9 1954.8,1395 Q1964.3,1438.9 1986.5,1468.2Z"/><path d="M1933.7,1427.5 Q1948.5,1398.3 1954.8,1354.4 Q1961.2,1398.3 1976,1427.5Z"/><path d="M1944.3,1386.9 Q1951.7,1357.6 1954.8,1313.7 Q1958,1357.6 1965.4,1386.9Z"/></g><g fill="#231d30"><path d="M1913,1599.4 Q1951.4,1574.1 1967.9,1536.1 Q1984.3,1574.1 2022.7,1599.4Z"/><path d="M1922.2,1564.2 Q1954.2,1538.9 1967.9,1500.9 Q1981.6,1538.9 2013.6,1564.2Z"/><path d="M1931.3,1529.1 Q1956.9,1503.8 1967.9,1465.8 Q1978.9,1503.8 2004.4,1529.1Z"/><path d="M1940.5,1493.9 Q1959.7,1468.6 1967.9,1430.6 Q1976.1,1468.6 1995.3,1493.9Z"/><path d="M1949.6,1458.8 Q1962.4,1433.5 1967.9,1395.5 Q1973.4,1433.5 1986.2,1458.8Z"/><path d="M1958.7,1423.6 Q1965.1,1398.3 1967.9,1360.3 Q1970.6,1398.3 1977,1423.6Z"/></g><g fill="#231d30"><path d="M1942.6,1568.4 Q1985.3,1540.3 2003.5,1498.2 Q2021.8,1540.3 2064.4,1568.4Z"/><path d="M1952.8,1529.4 Q1988.3,1501.3 2003.5,1459.1 Q2018.7,1501.3 2054.3,1529.4Z"/><path d="M1962.9,1490.4 Q1991.3,1462.3 2003.5,1420.1 Q2015.7,1462.3 2044.1,1490.4Z"/><path d="M1973.1,1451.3 Q1994.4,1423.2 2003.5,1381.1 Q2012.7,1423.2 2034,1451.3Z"/><path d="M1983.2,1412.3 Q1997.4,1384.2 2003.5,1342 Q2009.6,1384.2 2023.8,1412.3Z"/><path d="M1993.4,1373.3 Q2000.5,1345.2 2003.5,1303 Q2006.6,1345.2 2013.7,1373.3Z"/></g><g fill="#231d30"><path d="M1958.1,1564.3 Q2004.7,1533.6 2024.6,1487.6 Q2044.6,1533.6 2091.1,1564.3Z"/><path d="M1969.2,1521.7 Q2008,1491 2024.6,1445 Q2041.3,1491 2080.1,1521.7Z"/><path d="M1980.3,1479.1 Q2011.3,1448.4 2024.6,1402.3 Q2037.9,1448.4 2069,1479.1Z"/><path d="M1991.4,1436.4 Q2014.7,1405.8 2024.6,1359.7 Q2034.6,1405.8 2057.9,1436.4Z"/><path d="M2002.5,1393.8 Q2018,1363.1 2024.6,1317.1 Q2031.3,1363.1 2046.8,1393.8Z"/><path d="M2013.6,1351.2 Q2021.3,1320.5 2024.6,1274.5 Q2028,1320.5 2035.7,1351.2Z"/></g><circle cx="1947.6" cy="2242.1" r="4.6" fill="#e79a45" opacity="0.9"/><circle cx="954.1" cy="2185.9" r="6.2" fill="#f1b84a" opacity="0.9"/><circle cx="1461.2" cy="2383" r="5.8" fill="#f1b84a" opacity="0.9"/><circle cx="1738.1" cy="2424.2" r="3.8" fill="#e79a45" opacity="0.9"/><circle cx="1817.6" cy="2276.2" r="5.7" fill="#e79a45" opacity="0.9"/><circle cx="1863.6" cy="1729.2" r="5.3" fill="#f1b84a" opacity="0.9"/><circle cx="1211.8" cy="1993" r="3.8" fill="#e79a45" opacity="0.9"/><circle cx="1468.1" cy="2516.7" r="6.5" fill="#e79a45" opacity="0.9"/><circle cx="1496.4" cy="2373.9" r="5.2" fill="#f1b84a" opacity="0.9"/><circle cx="1677.8" cy="1960.4" r="5" fill="#f1b84a" opacity="0.9"/><circle cx="1405.9" cy="1988" r="2.8" fill="#e79a45" opacity="0.9"/><circle cx="1441.6" cy="2430.8" r="5.2" fill="#f6cf6a" opacity="0.9"/><circle cx="1775" cy="2317.3" r="3.9" fill="#f6cf6a" opacity="0.9"/><circle cx="1466.6" cy="2191.4" r="3.3" fill="#f3d9a6" opacity="0.9"/><circle cx="1897.6" cy="2049" r="6" fill="#f3d9a6" opacity="0.9"/><circle cx="1278.6" cy="2129.4" r="6.2" fill="#f6cf6a" opacity="0.9"/><circle cx="1386.9" cy="2035.9" r="5.6" fill="#f1b84a" opacity="0.9"/><circle cx="1407.6" cy="2202.8" r="5.5" fill="#f6cf6a" opacity="0.9"/><circle cx="1129.4" cy="2303.1" r="3.5" fill="#f1b84a" opacity="0.9"/><circle cx="1470.5" cy="1955.7" r="5.8" fill="#e79a45" opacity="0.9"/><circle cx="1086.9" cy="2208" r="3.2" fill="#e79a45" opacity="0.9"/><circle cx="1496.1" cy="1936.4" r="4.6" fill="#e79a45" opacity="0.9"/><circle cx="1163.9" cy="2044.2" r="7" fill="#f3d9a6" opacity="0.9"/><circle cx="1178.5" cy="2025.9" r="4.7" fill="#f3d9a6" opacity="0.9"/><circle cx="1828.1" cy="2321.4" r="2.7" fill="#f6cf6a" opacity="0.9"/><circle cx="1369" cy="2453.6" r="4.2" fill="#f3d9a6" opacity="0.9"/><circle cx="1133" cy="2412.6" r="3.3" fill="#f3d9a6" opacity="0.9"/><circle cx="975.2" cy="2176.6" r="5.5" fill="#f3d9a6" opacity="0.9"/><circle cx="1739.3" cy="2219.1" r="6.6" fill="#f6cf6a" opacity="0.9"/><circle cx="958.1" cy="2349.2" r="3.3" fill="#f3d9a6" opacity="0.9"/><circle cx="937.7" cy="2369.4" r="2.9" fill="#f6cf6a" opacity="0.9"/><circle cx="1832.8" cy="1807.9" r="2.6" fill="#f3d9a6" opacity="0.9"/><circle cx="1254.1" cy="2295.5" r="3.4" fill="#f6cf6a" opacity="0.9"/><circle cx="917.1" cy="2341.3" r="3.3" fill="#f6cf6a" opacity="0.9"/><circle cx="1547.9" cy="2287.6" r="4.7" fill="#f3d9a6" opacity="0.9"/><circle cx="1670.6" cy="2336.9" r="3.2" fill="#f3d9a6" opacity="0.9"/><circle cx="931.6" cy="2542.7" r="6.7" fill="#e79a45" opacity="0.9"/><circle cx="1873.2" cy="2014.1" r="3.7" fill="#f1b84a" opacity="0.9"/><circle cx="1293.9" cy="2292" r="5.3" fill="#f1b84a" opacity="0.9"/><circle cx="928.9" cy="2101.4" r="5.5" fill="#f3d9a6" opacity="0.9"/><circle cx="1900.6" cy="2309.9" r="5" fill="#e79a45" opacity="0.9"/><circle cx="947.9" cy="2180.8" r="6.2" fill="#f3d9a6" opacity="0.9"/><circle cx="1436.8" cy="2086.9" r="5.7" fill="#f6cf6a" opacity="0.9"/><circle cx="1410.3" cy="2171.9" r="4.3" fill="#f3d9a6" opacity="0.9"/><circle cx="1980.5" cy="2000.1" r="3.9" fill="#e79a45" opacity="0.9"/><circle cx="1326.5" cy="2321" r="6.9" fill="#f3d9a6" opacity="0.9"/><circle cx="1539.7" cy="2483.4" r="4.5" fill="#f6cf6a" opacity="0.9"/><circle cx="909.2" cy="2324.3" r="5.2" fill="#e79a45" opacity="0.9"/><circle cx="1462.7" cy="2268" r="5" fill="#f6cf6a" opacity="0.9"/><circle cx="1352" cy="2050" r="5.1" fill="#f3d9a6" opacity="0.9"/><circle cx="1493.2" cy="2400.8" r="5.3" fill="#f6cf6a" opacity="0.9"/><circle cx="1016.8" cy="2501.7" r="5.2" fill="#f3d9a6" opacity="0.9"/><circle cx="1568.7" cy="1865.7" r="3.7" fill="#f6cf6a" opacity="0.9"/><circle cx="1820.3" cy="1759.8" r="3.2" fill="#f1b84a" opacity="0.9"/><circle cx="1840.6" cy="1947.5" r="2.5" fill="#f1b84a" opacity="0.9"/><circle cx="1030.3" cy="2308.3" r="3.4" fill="#e79a45" opacity="0.9"/><circle cx="1184.3" cy="2128.6" r="6.9" fill="#f3d9a6" opacity="0.9"/><circle cx="1780.6" cy="2122" r="2.9" fill="#f1b84a" opacity="0.9"/><circle cx="1456.1" cy="1919.8" r="5" fill="#f6cf6a" opacity="0.9"/><circle cx="868.3" cy="2151.9" r="4.5" fill="#f3d9a6" opacity="0.9"/><circle cx="1795.9" cy="1829.8" r="5" fill="#f6cf6a" opacity="0.9"/><circle cx="1234.5" cy="1984.4" r="6.4" fill="#f1b84a" opacity="0.9"/><circle cx="1753.4" cy="2280.2" r="6.4" fill="#e79a45" opacity="0.9"/><circle cx="1579" cy="2105.6" r="5.5" fill="#e79a45" opacity="0.9"/><circle cx="1633" cy="2361.8" r="4" fill="#f3d9a6" opacity="0.9"/><circle cx="1415.9" cy="2455.4" r="4.7" fill="#f6cf6a" opacity="0.9"/><circle cx="984.5" cy="2380.9" r="5.8" fill="#e79a45" opacity="0.9"/><circle cx="1240.7" cy="2353.2" r="6.2" fill="#f6cf6a" opacity="0.9"/><circle cx="1445.9" cy="2202.8" r="6.7" fill="#f3d9a6" opacity="0.9"/><circle cx="1449.3" cy="1956.5" r="3.5" fill="#f3d9a6" opacity="0.9"/><circle cx="1860.1" cy="1844.4" r="4.9" fill="#f6cf6a" opacity="0.9"/><circle cx="936.3" cy="2249.1" r="4.3" fill="#e79a45" opacity="0.9"/><circle cx="1717.8" cy="2350.1" r="6.8" fill="#f3d9a6" opacity="0.9"/><circle cx="1042.4" cy="2147" r="4.3" fill="#f1b84a" opacity="0.9"/><circle cx="1693" cy="2117" r="2.7" fill="#f6cf6a" opacity="0.9"/><circle cx="1201.7" cy="2177.2" r="3.3" fill="#f6cf6a" opacity="0.9"/><circle cx="1727" cy="2319.6" r="4.9" fill="#f1b84a" opacity="0.9"/><circle cx="1690.2" cy="2087.9" r="6.6" fill="#e79a45" opacity="0.9"/><circle cx="1705" cy="2549.9" r="2.9" fill="#e79a45" opacity="0.9"/><circle cx="1957" cy="2400.1" r="4.7" fill="#f6cf6a" opacity="0.9"/><circle cx="1277.5" cy="2160.2" r="5.5" fill="#f6cf6a" opacity="0.9"/><circle cx="1498.2" cy="2145.6" r="6.9" fill="#f3d9a6" opacity="0.9"/><circle cx="1710.1" cy="1985.3" r="5.6" fill="#e79a45" opacity="0.9"/><circle cx="1626.6" cy="2518.5" r="3" fill="#f3d9a6" opacity="0.9"/><circle cx="1254.3" cy="1981.3" r="3.2" fill="#f6cf6a" opacity="0.9"/><circle cx="1212.3" cy="2227" r="6.1" fill="#e79a45" opacity="0.9"/><circle cx="1537.5" cy="2113.1" r="6.2" fill="#f1b84a" opacity="0.9"/><circle cx="1308.5" cy="2424.2" r="5.9" fill="#f3d9a6" opacity="0.9"/><circle cx="1420.4" cy="2327.2" r="5.6" fill="#f6cf6a" opacity="0.9"/><circle cx="1244.6" cy="2286.4" r="3.1" fill="#e79a45" opacity="0.9"/><circle cx="1126.2" cy="2362.7" r="3.8" fill="#f6cf6a" opacity="0.9"/><circle cx="1839.7" cy="2241.9" r="3.3" fill="#f6cf6a" opacity="0.9"/><circle cx="951" cy="2196.4" r="5.9" fill="#f6cf6a" opacity="0.9"/><circle cx="1574.9" cy="2086.7" r="5.1" fill="#e79a45" opacity="0.9"/><circle cx="1813" cy="2422.8" r="4.1" fill="#f1b84a" opacity="0.9"/><circle cx="1481.6" cy="2085.8" r="2.8" fill="#f1b84a" opacity="0.9"/><circle cx="1693.5" cy="2144.6" r="2.9" fill="#f6cf6a" opacity="0.9"/><circle cx="1310" cy="2171.9" r="4.1" fill="#f6cf6a" opacity="0.9"/><circle cx="1276.4" cy="2288.1" r="3.8" fill="#f3d9a6" opacity="0.9"/><circle cx="1796.6" cy="2334.8" r="3.4" fill="#f3d9a6" opacity="0.9"/><circle cx="1325" cy="2099" r="5.1" fill="#f3d9a6" opacity="0.9"/><circle cx="1319.4" cy="2003.1" r="6.8" fill="#e79a45" opacity="0.9"/><circle cx="1014.2" cy="2223.6" r="4.1" fill="#f3d9a6" opacity="0.9"/><circle cx="1866.6" cy="2206.9" r="3.1" fill="#f6cf6a" opacity="0.9"/><circle cx="1638.1" cy="1937" r="5.9" fill="#f1b84a" opacity="0.9"/><circle cx="1503.1" cy="2484" r="6.7" fill="#f6cf6a" opacity="0.9"/><circle cx="1957.9" cy="1897.4" r="3.7" fill="#f6cf6a" opacity="0.9"/><circle cx="1646.7" cy="1960.2" r="4.7" fill="#e79a45" opacity="0.9"/><circle cx="1674.5" cy="1925.4" r="3.7" fill="#f1b84a" opacity="0.9"/><circle cx="1043.2" cy="2161.6" r="6.5" fill="#e79a45" opacity="0.9"/><circle cx="1006.2" cy="2386" r="5.7" fill="#f1b84a" opacity="0.9"/><circle cx="1479.8" cy="1930.4" r="4.8" fill="#f6cf6a" opacity="0.9"/><circle cx="1088.2" cy="2251.2" r="3.1" fill="#f6cf6a" opacity="0.9"/><circle cx="1325.2" cy="2303.1" r="3.1" fill="#f6cf6a" opacity="0.9"/><circle cx="1515.8" cy="2559.2" r="4" fill="#f6cf6a" opacity="0.9"/><circle cx="1004.5" cy="2528.7" r="3.5" fill="#f3d9a6" opacity="0.9"/><circle cx="1938" cy="2237.6" r="4.1" fill="#f6cf6a" opacity="0.9"/><circle cx="963.2" cy="2373.8" r="3.6" fill="#f3d9a6" opacity="0.9"/><circle cx="1096.3" cy="2486.7" r="6.7" fill="#f6cf6a" opacity="0.9"/><circle cx="1047.8" cy="2315.5" r="6.5" fill="#f6cf6a" opacity="0.9"/><circle cx="948.1" cy="2393.2" r="3.9" fill="#e79a45" opacity="0.9"/><circle cx="868.6" cy="2445.2" r="4.3" fill="#f1b84a" opacity="0.9"/><circle cx="1503.7" cy="2110.4" r="5.9" fill="#f1b84a" opacity="0.9"/><circle cx="1391.2" cy="2205.5" r="3.5" fill="#f6cf6a" opacity="0.9"/><circle cx="1713.9" cy="2309.9" r="4.7" fill="#f1b84a" opacity="0.9"/><circle cx="954.3" cy="2195.5" r="2.8" fill="#f6cf6a" opacity="0.9"/><circle cx="1684.5" cy="2536" r="4.1" fill="#f6cf6a" opacity="0.9"/><circle cx="1941.4" cy="1748.4" r="2.8" fill="#f6cf6a" opacity="0.9"/><circle cx="1933.4" cy="1638.9" r="5" fill="#f1b84a" opacity="0.9"/><circle cx="1647.8" cy="2504.3" r="6.8" fill="#f6cf6a" opacity="0.9"/><circle cx="1888.2" cy="2059.8" r="3" fill="#e79a45" opacity="0.9"/><circle cx="1032.3" cy="2342.5" r="5.4" fill="#e79a45" opacity="0.9"/><circle cx="1082.6" cy="2462" r="6.8" fill="#e79a45" opacity="0.9"/><circle cx="1839" cy="1809.5" r="2.9" fill="#f1b84a" opacity="0.9"/><circle cx="1595" cy="2482.6" r="4.7" fill="#f6cf6a" opacity="0.9"/><circle cx="1641.6" cy="2080.8" r="3.9" fill="#e79a45" opacity="0.9"/><circle cx="1337.7" cy="2308.6" r="5.7" fill="#f6cf6a" opacity="0.9"/><circle cx="1360.8" cy="2462.3" r="2.6" fill="#e79a45" opacity="0.9"/><circle cx="1505.9" cy="2434.6" r="6.2" fill="#e79a45" opacity="0.9"/><circle cx="1199.5" cy="2372.2" r="4.5" fill="#e79a45" opacity="0.9"/>
<rect width="1920" height="2560" fill="url(#shade)"/>
<rect width="1920" height="2560" filter="url(#grain)"/></svg>
